<svg viewBox="0 0 80 100" xmlns="http://www.w3.org/2000/svg">
<g>
<g>
<ellipse cx="40" cy="49" rx="25.599999999999998" ry="49" style="opacity:1;fill:green"/>
<ellipse cx="40" cy="37.5" rx="31.999999999999996" ry="37.5" style="opacity:1;fill:green"/>
<rect fill="green" height="25" opacity="1.0" rx="7" width="27.428571428571427" x="26.285714285714285" y="75"/>
</g>
<g>
<ellipse cx="6.666666666666667" cy="50.3" rx="6.666666666666667" ry="12.799999999999999" style="opacity:1;fill:green"/>
<ellipse cx="6.666666666666667" cy="50.3" rx="3.3333333333333335" ry="9.466666666666665" style="opacity:0.4;fill:black;"/>
<ellipse cx="9.444444444444445" cy="51.23333333333333" rx="2.2222222222222223" ry="4.266666666666667" style="opacity:1;fill:green"/>
</g>
<g>
<ellipse cx="73.33333333333334" cy="50.3" rx="6.666666666666667" ry="12.799999999999999" style="opacity:1;fill:green"/>
<ellipse cx="73.33333333333333" cy="50.3" rx="3.3333333333333335" ry="9.466666666666665" style="opacity:0.4;fill:black;"/>
<ellipse cx="70.55555555555556" cy="51.23333333333333" rx="2.2222222222222223" ry="4.266666666666667" style="opacity:1;fill:green"/>
</g>
<g>
<rect fill="#bd601e" height="25.599999999999998" opacity="1.0" rx="5" width="5.119999999999999" x="37.44" y="37.5"/>
<ellipse cx="40" cy="52.86" rx="4.266666666666666" ry="10.239999999999998" style="opacity:1;fill:#bd601e"/>
<ellipse cx="40" cy="58.12222222222222" rx="6.3999999999999995" ry="3.5555555555555554" style="opacity:1;fill:#bd601e"/>
</g>
<g>
<ellipse cx="52.8" cy="44.9" rx="6.3999999999999995" ry="6.3999999999999995" style="opacity:0.4;fill:black;"/>
<ellipse cx="52.8" cy="43.9" rx="6.3999999999999995" ry="6.3999999999999995" style="opacity:1;fill:white"/>
<ellipse cx="52.8" cy="43.9" rx="5.119999999999999" ry="5.119999999999999" style="opacity:1;fill:purple"/>
<ellipse cx="52.8" cy="43.9" rx="3.1999999999999997" ry="3.1999999999999997" style="opacity:1;fill:black"/>
<ellipse cx="51.67999999999999" cy="42.779999999999994" rx="0.7999999999999999" ry="0.7999999999999999" style="opacity:1;fill:white"/>
<ellipse cx="53.27999999999999" cy="44.37999999999999" rx="1.44" ry="1.44" style="opacity:1;fill:white"/>
</g>
<g>
<ellipse cx="27.2" cy="44.9" rx="6.3999999999999995" ry="6.3999999999999995" style="opacity:0.4;fill:black;"/>
<ellipse cx="27.2" cy="43.9" rx="6.3999999999999995" ry="6.3999999999999995" style="opacity:1;fill:white"/>
<ellipse cx="27.199999999999996" cy="43.9" rx="5.119999999999999" ry="5.119999999999999" style="opacity:1;fill:purple"/>
<ellipse cx="27.2" cy="43.9" rx="3.1999999999999997" ry="3.1999999999999997" style="opacity:1;fill:black"/>
<ellipse cx="26.080000000000002" cy="42.779999999999994" rx="0.7999999999999999" ry="0.7999999999999999" style="opacity:1;fill:white"/>
<ellipse cx="27.68" cy="44.37999999999999" rx="1.44" ry="1.44" style="opacity:1;fill:white"/>
</g>
<path d="M20.8,37.5 L33.6,35.9 L33.6,34.3 L20.8,35.9 z" fill="#422808" opacity="1"/>
<path d="M46.4,34.3 L59.2,35.9 L59.2,37.5 L46.4,35.9 z" fill="#422808" opacity="1"/>
<g>
<path d="M24,68.1 c0,20,32,20,32,0 z" fill="black" opacity="1"/>
<g>
<rect fill="#ffffc4" height="5" opacity="1.0" rx="0.4" width="29.333333333333332" x="25.333333333333332" y="68.1"/>
</g>
</g>
</g>
</svg>