<svg viewBox="0 0 64 128" xmlns="http://www.w3.org/2000/svg">
<g>
<g>
<ellipse cx="32" cy="96" rx="32" ry="32" style="opacity:1;fill:#8c7436"/>
</g>
<g>
<ellipse cx="10.666666666666666" cy="42.66666666666667" rx="10.666666666666666" ry="42.66666666666667" style="opacity:1;fill:#8c7436"/>
<ellipse cx="10.666666666666666" cy="42.66666666666667" rx="5.333333333333333" ry="37.333333333333336" style="opacity:0.4;fill:black;"/>
</g>
<g>
<ellipse cx="53.333333333333336" cy="42.66666666666667" rx="10.666666666666666" ry="42.66666666666667" style="opacity:1;fill:#8c7436"/>
<ellipse cx="53.33333333333334" cy="42.66666666666667" rx="5.333333333333333" ry="37.333333333333336" style="opacity:0.4;fill:black;"/>
</g>
<g>
<ellipse cx="32" cy="106.66666666666669" rx="7.111111111111111" ry="7.111111111111111" style="opacity:1;fill:#b4584c"/>
<ellipse cx="32" cy="102.87407407407409" rx="4.7407407407407405" ry="2.3703703703703702" style="opacity:0.2;fill:white;"/>
</g>
<g>
<ellipse cx="46.22222222222223" cy="93.44444444444446" rx="7.111111111111111" ry="7.111111111111111" style="opacity:0.4;fill:black;"/>
<ellipse cx="46.22222222222223" cy="92.44444444444446" rx="7.111111111111111" ry="7.111111111111111" style="opacity:1;fill:#fff237"/>
<ellipse cx="46.22222222222223" cy="92.44444444444446" rx="3.5555555555555554" ry="7.111111111111111" style="opacity:1;fill:black"/>
<ellipse cx="45.866666666666674" cy="88.53333333333333" rx="1.7777777777777777" ry="1.7777777777777777" style="opacity:1;fill:white"/>
</g>
<g>
<ellipse cx="17.77777777777778" cy="93.44444444444446" rx="7.111111111111111" ry="7.111111111111111" style="opacity:0.4;fill:black;"/>
<ellipse cx="17.77777777777778" cy="92.44444444444446" rx="7.111111111111111" ry="7.111111111111111" style="opacity:1;fill:#fff237"/>
<ellipse cx="17.77777777777778" cy="92.44444444444446" rx="3.5555555555555554" ry="7.111111111111111" style="opacity:1;fill:black"/>
<ellipse cx="17.422222222222224" cy="88.53333333333333" rx="1.7777777777777777" ry="1.7777777777777777" style="opacity:1;fill:white"/>
</g>
<g>
<path d="M16,120.17778 c0,8.533334,32,8.533334,32,0 z" fill="black" opacity="1"/>
<g>
<g>
<path d="M19.777779,120.17778 L23.619047,120.17778 L21.698412,124.01905 z" fill="white" opacity="1"/>
<path d="M23.968254,120.17778 L27.809525,120.17778 L25.88889,124.01905 z" fill="white" opacity="1"/>
<path d="M28.15873,120.17778 L32,120.17778 L30.079365,124.01905 z" fill="white" opacity="1"/>
<path d="M32.349205,120.17778 L36.190475,120.17778 L34.26984,124.01905 z" fill="white" opacity="1"/>
<path d="M36.539684,120.17778 L40.38095,120.17778 L38.460316,124.01905 z" fill="white" opacity="1"/>
<path d="M40.73016,120.17778 L44.57143,120.17778 L42.650795,124.01905 z" fill="white" opacity="1"/>
<path d="M44.920635,120.17778 L48.761906,120.17778 L46.84127,124.01905 z" fill="white" opacity="1"/>
</g>
</g>
</g>
</g>
</svg>