<svg viewBox="0 0 64 128" xmlns="http://www.w3.org/2000/svg">
<g>
<g>
<ellipse cx="32" cy="96" rx="32" ry="32" style="opacity:1;fill:#8c7436"/>
</g>
<g>
<ellipse cx="10.666666666666666" cy="42.66666666666667" rx="10.666666666666666" ry="42.66666666666667" style="opacity:1;fill:#8c7436"/>
<ellipse cx="10.666666666666666" cy="42.66666666666667" rx="5.333333333333333" ry="37.333333333333336" style="opacity:0.4;fill:black;"/>
</g>
<g>
<ellipse cx="53.333333333333336" cy="42.66666666666667" rx="10.666666666666666" ry="42.66666666666667" style="opacity:1;fill:#8c7436"/>
<ellipse cx="53.33333333333334" cy="42.66666666666667" rx="5.333333333333333" ry="37.333333333333336" style="opacity:0.4;fill:black;"/>
</g>
<g>
<ellipse cx="32" cy="106.66666666666669" rx="7.111111111111111" ry="7.111111111111111" style="opacity:1;fill:#b4584c"/>
<ellipse cx="32" cy="102.87407407407409" rx="4.7407407407407405" ry="2.3703703703703702" style="opacity:0.2;fill:white;"/>
</g>
<g>
<ellipse cx="46.22222222222223" cy="93.44444444444446" rx="7.111111111111111" ry="7.111111111111111" style="opacity:0.4;fill:black;"/>
<ellipse cx="46.22222222222223" cy="92.44444444444446" rx="7.111111111111111" ry="7.111111111111111" style="opacity:1;fill:#fff237"/>
<ellipse cx="46.22222222222223" cy="92.44444444444446" rx="3.5555555555555554" ry="7.111111111111111" style="opacity:1;fill:black"/>
<ellipse cx="45.866666666666674" cy="88.53333333333333" rx="1.7777777777777777" ry="1.7777777777777777" style="opacity:1;fill:white"/>
</g>
<g>
<ellipse cx="17.77777777777778" cy="93.44444444444446" rx="7.111111111111111" ry="7.111111111111111" style="opacity:0.4;fill:black;"/>
<ellipse cx="17.77777777777778" cy="92.44444444444446" rx="7.111111111111111" ry="7.111111111111111" style="opacity:1;fill:#fff237"/>
<ellipse cx="17.77777777777778" cy="92.44444444444446" rx="3.5555555555555554" ry="7.111111111111111" style="opacity:1;fill:black"/>
<ellipse cx="17.422222222222224" cy="88.53333333333333" rx="1.7777777777777777" ry="1.7777777777777777" style="opacity:1;fill:white"/>
</g>
<g>
<path d="M16,120.17778 c0,8.533334,32,8.533334,32,0 z" fill="black" opacity="1"/>
<g>
<g>
<path d="M17.333334,120.17778 L20.875284,120.17778 L19.10431,123.71973 z" fill="white" opacity="1"/>
<path d="M21.573696,120.17778 L25.115646,120.17778 L23.344671,123.71973 z" fill="white" opacity="1"/>
<path d="M25.814058,120.17778 L29.356009,120.17778 L27.585033,123.71973 z" fill="white" opacity="1"/>
<path d="M30.054422,120.17778 L33.59637,120.17778 L31.825397,123.71973 z" fill="white" opacity="1"/>
<path d="M34.294785,120.17778 L37.836735,120.17778 L36.065758,123.71973 z" fill="white" opacity="1"/>
<path d="M38.53515,120.17778 L42.0771,120.17778 L40.30612,123.71973 z" fill="white" opacity="1"/>
<path d="M42.77551,120.17778 L46.31746,120.17778 L44.546486,123.71973 z" fill="white" opacity="1"/>
</g>
</g>
</g>
</g>
</svg>